<svg width="87" height="13" viewBox="0 0 87 13" fill="none" xmlns="http://www.w3.org/2000/svg">
<g clip-path="url(#clip0_1_111)">
<path fill-rule="evenodd" clip-rule="evenodd" d="M83.499 8.296L84.325 13L79.999 10.78L75.672 13L76.498 8.296L72.998 4.966L77.836 4.279L79.999 0L82.162 4.279L87 4.966L83.499 8.296ZM66.325 13L61.999 10.78L57.672 13L58.498 8.296L54.998 4.966L59.836 4.279L61.999 0L64.161 4.279L69 4.966L65.499 8.296L66.325 13ZM48.325 13L43.999 10.78L39.672 13L40.498 8.296L36.998 4.966L41.836 4.279L43.999 0L46.162 4.279L51 4.966L47.499 8.296L48.325 13ZM30.325 13L25.999 10.78L21.672 13L22.498 8.296L18.998 4.966L23.836 4.279L25.999 0L28.161 4.279L33 4.966L29.499 8.296L30.325 13ZM12.325 13L7.999 10.78L3.672 13L4.498 8.296L0.998001 4.966L5.836 4.279L7.999 0L10.162 4.279L15 4.966L11.499 8.296L12.325 13Z" fill="#FFC80A"/>
</g>
<defs>
<clipPath id="clip0_1_111">
<rect width="87" height="13" fill="white"/>
</clipPath>
</defs>
</svg>
