<svg width="215" height="77" viewBox="0 0 215 77" fill="none" xmlns="http://www.w3.org/2000/svg">
<path d="M25.6848 0H39.4095L64.9963 77H51.0755L44.6053 57.8042H20.293L13.9208 77H0L25.6848 0ZM42.1545 47.2845L32.5472 15.5085L22.5477 47.2845H42.1545Z" fill="white"/>
<path d="M79.8851 0L97.1391 28.4141L114.295 0H129L104.884 39.0423L128.216 77H113.511L97.1391 49.6704L80.6694 77H65.8663L89.1983 39.0423L65.0821 0H79.8851Z" fill="white"/>
<path d="M135 77V0H148.511V77H135Z" fill="#EC7979"/>
<path d="M215 13.1225H192.776V77H179.363V13.1225H157.139V0H215V13.1225Z" fill="#EC7979"/>
</svg>
